<?xml version='1.0' encoding='utf-8'?>
<svg xmlns="http://www.w3.org/2000/svg" viewBox="0 0 472 184" fill="none">
  <g transform="translate(20, 20)">
    <g transform="translate(0, 0)">
      <rect x="0" y="23.0" width="25.0" height="26.0" fill="#00FF88" />
    </g>
    <g transform="translate(24, 0)">
      <rect x="0" y="0" width="25.0" height="25.0" fill="#00FF88" />
    </g>
    <g transform="translate(48, 0)">
      <rect x="0" y="0" width="25.0" height="25.0" fill="#00FF88" />
    </g>
    <g transform="translate(72, 0)">
      <rect x="0" y="23.0" width="25.0" height="26.0" fill="#00FF88" />
    </g>
    <g transform="translate(96, 0)" />
    <g transform="translate(120, 0)">
      <rect x="0" y="0" width="25.0" height="49.0" fill="#00FF88" />
    </g>
    <g transform="translate(144, 0)">
      <rect x="0" y="0" width="25.0" height="25.0" fill="#00FF88" />
    </g>
    <g transform="translate(168, 0)">
      <rect x="0" y="0" width="25.0" height="25.0" fill="#00FF88" />
    </g>
    <g transform="translate(192, 0)">
      <rect x="0" y="23.0" width="25.0" height="26.0" fill="#00FF88" />
    </g>
    <g transform="translate(216, 0)" />
    <g transform="translate(240, 0)">
      <rect x="0" y="23.0" width="25.0" height="26.0" fill="#00FF88" />
    </g>
    <g transform="translate(264, 0)">
      <rect x="0" y="0" width="25.0" height="25.0" fill="#00FF88" />
    </g>
    <g transform="translate(288, 0)">
      <rect x="0" y="0" width="25.0" height="25.0" fill="#00FF88" />
    </g>
    <g transform="translate(312, 0)">
      <rect x="0" y="23.0" width="25.0" height="26.0" fill="#00FF88" />
    </g>
    <g transform="translate(336, 0)" />
    <g transform="translate(360, 0)">
      <rect x="0" y="0" width="25.0" height="49.0" fill="#00FF88" />
    </g>
    <g transform="translate(0, 48)">
      <rect x="0" y="0" width="25.0" height="49.0" fill="#00FF88" />
    </g>
    <g transform="translate(24, 48)">
      <rect x="0" y="0" width="25.0" height="25.0" fill="#00FF88" />
    </g>
    <g transform="translate(48, 48)">
      <rect x="0" y="0" width="25.0" height="25.0" fill="#00FF88" />
    </g>
    <g transform="translate(72, 48)">
      <rect x="0" y="0" width="25.0" height="49.0" fill="#00FF88" />
    </g>
    <g transform="translate(96, 48)" />
    <g transform="translate(120, 48)">
      <rect x="0" y="0" width="25.0" height="49.0" fill="#00FF88" />
    </g>
    <g transform="translate(144, 48)" />
    <g transform="translate(168, 48)" />
    <g transform="translate(192, 48)">
      <rect x="0" y="0" width="25.0" height="49.0" fill="#00FF88" />
    </g>
    <g transform="translate(216, 48)" />
    <g transform="translate(240, 48)">
      <rect x="0" y="0" width="25.0" height="49.0" fill="#00FF88" />
    </g>
    <g transform="translate(264, 48)">
      <rect x="0" y="0" width="25.0" height="25.0" fill="#00FF88" />
    </g>
    <g transform="translate(288, 48)">
      <rect x="0" y="0" width="25.0" height="25.0" fill="#00FF88" />
    </g>
    <g transform="translate(312, 48)">
      <rect x="0" y="0" width="25.0" height="49.0" fill="#00FF88" />
    </g>
    <g transform="translate(336, 48)" />
    <g transform="translate(360, 48)">
      <rect x="0" y="0" width="25.0" height="49.0" fill="#00FF88" />
    </g>
    <g transform="translate(0, 96)">
      <rect x="0" y="0" width="25.0" height="25.0" fill="#00FF88" />
    </g>
    <g transform="translate(24, 96)" />
    <g transform="translate(48, 96)" />
    <g transform="translate(72, 96)">
      <rect x="0" y="0" width="25.0" height="25.0" fill="#00FF88" />
    </g>
    <g transform="translate(96, 96)" />
    <g transform="translate(120, 96)">
      <rect x="0" y="0" width="25.0" height="25.0" fill="#00FF88" />
    </g>
    <g transform="translate(144, 96)">
      <rect x="0" y="0" width="25.0" height="25.0" fill="#00FF88" />
    </g>
    <g transform="translate(168, 96)">
      <rect x="0" y="0" width="25.0" height="25.0" fill="#00FF88" />
    </g>
    <g transform="translate(192, 96)" />
    <g transform="translate(216, 96)" />
    <g transform="translate(240, 96)">
      <rect x="0" y="0" width="25.0" height="25.0" fill="#00FF88" />
    </g>
    <g transform="translate(264, 96)" />
    <g transform="translate(288, 96)" />
    <g transform="translate(312, 96)">
      <rect x="0" y="0" width="25.0" height="25.0" fill="#00FF88" />
    </g>
    <g transform="translate(336, 96)" />
    <g transform="translate(360, 96)">
      <rect x="0" y="0" width="25.0" height="25.0" fill="#00FF88" />
    </g>
    <g transform="translate(384, 96)">
      <rect x="0" y="0" width="25.0" height="25.0" fill="#00FF88" />
    </g>
    <g transform="translate(408, 96)">
      <rect x="0" y="0" width="25.0" height="25.0" fill="#00FF88" />
    </g>
  </g>
</svg>