<svg xmlns="http://www.w3.org/2000/svg" xmlns:xlink="http://www.w3.org/1999/xlink" width="678" zoomAndPan="magnify"
    viewBox="0 0 508.5 188.249992" height="251" preserveAspectRatio="xMidYMid meet" version="1.0">
    <defs>
        <g />
        <clipPath id="38adb359db">
            <path d="M 17.074219 59 L 128.382812 59 L 128.382812 149.203125 L 17.074219 149.203125 Z M 17.074219 59 "
                clip-rule="nonzero" />
        </clipPath>
    </defs>
    <g fill="#000000" fill-opacity="1">
        <g transform="translate(132.520545, 129.238502)">
            <g>
                <path
                    d="M 32.046875 -21.171875 C 28.234375 -21.054688 24.988281 -20.753906 22.3125 -20.265625 C 19.632812 -19.785156 17.453125 -19.160156 15.765625 -18.390625 C 14.078125 -17.617188 12.851562 -16.707031 12.09375 -15.65625 C 11.34375 -14.601562 10.96875 -13.425781 10.96875 -12.125 C 10.96875 -10.882812 11.164062 -9.816406 11.5625 -8.921875 C 11.96875 -8.023438 12.519531 -7.289062 13.21875 -6.71875 C 13.914062 -6.144531 14.734375 -5.722656 15.671875 -5.453125 C 16.617188 -5.191406 17.632812 -5.0625 18.71875 -5.0625 C 20.175781 -5.0625 21.503906 -5.207031 22.703125 -5.5 C 23.910156 -5.789062 25.050781 -6.210938 26.125 -6.765625 C 27.195312 -7.328125 28.21875 -7.992188 29.1875 -8.765625 C 30.164062 -9.546875 31.117188 -10.429688 32.046875 -11.421875 Z M 5.34375 -40.40625 C 7.945312 -42.914062 10.75 -44.789062 13.75 -46.03125 C 16.75 -47.269531 20.078125 -47.890625 23.734375 -47.890625 C 26.367188 -47.890625 28.707031 -47.453125 30.75 -46.578125 C 32.789062 -45.710938 34.507812 -44.503906 35.90625 -42.953125 C 37.300781 -41.410156 38.351562 -39.539062 39.0625 -37.34375 C 39.769531 -35.144531 40.125 -32.726562 40.125 -30.09375 L 40.125 0 L 36.453125 0 C 35.648438 0 35.03125 -0.128906 34.59375 -0.390625 C 34.164062 -0.660156 33.828125 -1.179688 33.578125 -1.953125 L 32.65625 -6.40625 C 31.414062 -5.257812 30.207031 -4.242188 29.03125 -3.359375 C 27.851562 -2.484375 26.613281 -1.742188 25.3125 -1.140625 C 24.007812 -0.535156 22.625 -0.0703125 21.15625 0.25 C 19.6875 0.582031 18.050781 0.75 16.25 0.75 C 14.425781 0.75 12.707031 0.492188 11.09375 -0.015625 C 9.488281 -0.535156 8.085938 -1.304688 6.890625 -2.328125 C 5.703125 -3.347656 4.757812 -4.640625 4.0625 -6.203125 C 3.363281 -7.765625 3.015625 -9.613281 3.015625 -11.75 C 3.015625 -13.601562 3.523438 -15.390625 4.546875 -17.109375 C 5.566406 -18.828125 7.222656 -20.351562 9.515625 -21.6875 C 11.804688 -23.019531 14.796875 -24.109375 18.484375 -24.953125 C 22.171875 -25.804688 26.691406 -26.296875 32.046875 -26.421875 L 32.046875 -30.09375 C 32.046875 -33.75 31.253906 -36.515625 29.671875 -38.390625 C 28.097656 -40.265625 25.796875 -41.203125 22.765625 -41.203125 C 20.710938 -41.203125 19 -40.945312 17.625 -40.4375 C 16.25 -39.925781 15.054688 -39.351562 14.046875 -38.71875 C 13.046875 -38.082031 12.179688 -37.507812 11.453125 -37 C 10.722656 -36.488281 10.003906 -36.234375 9.296875 -36.234375 C 8.734375 -36.234375 8.25 -36.378906 7.84375 -36.671875 C 7.445312 -36.960938 7.109375 -37.328125 6.828125 -37.765625 Z M 5.34375 -40.40625 " />
            </g>
        </g>
    </g>
    <g fill="#000000" fill-opacity="1">
        <g transform="translate(178.685952, 129.238502)">
            <g>
                <path
                    d="M 37.203125 -35.859375 C 35.648438 -37.929688 33.976562 -39.375 32.1875 -40.1875 C 30.394531 -41.007812 28.382812 -41.421875 26.15625 -41.421875 C 21.78125 -41.421875 18.414062 -39.859375 16.0625 -36.734375 C 13.71875 -33.609375 12.546875 -29.148438 12.546875 -23.359375 C 12.546875 -20.296875 12.804688 -17.671875 13.328125 -15.484375 C 13.859375 -13.304688 14.632812 -11.507812 15.65625 -10.09375 C 16.675781 -8.6875 17.925781 -7.65625 19.40625 -7 C 20.894531 -6.351562 22.585938 -6.03125 24.484375 -6.03125 C 27.203125 -6.03125 29.570312 -6.648438 31.59375 -7.890625 C 33.625 -9.128906 35.492188 -10.878906 37.203125 -13.140625 Z M 45.46875 -68.40625 L 45.46875 0 L 40.546875 0 C 39.367188 0 38.625 -0.570312 38.3125 -1.71875 L 37.578125 -7.4375 C 35.566406 -5.019531 33.273438 -3.066406 30.703125 -1.578125 C 28.128906 -0.0859375 25.15625 0.65625 21.78125 0.65625 C 19.082031 0.65625 16.632812 0.132812 14.4375 -0.90625 C 12.238281 -1.945312 10.363281 -3.472656 8.8125 -5.484375 C 7.269531 -7.492188 6.082031 -10 5.25 -13 C 4.414062 -16.007812 4 -19.460938 4 -23.359375 C 4 -26.828125 4.460938 -30.054688 5.390625 -33.046875 C 6.316406 -36.035156 7.644531 -38.628906 9.375 -40.828125 C 11.113281 -43.023438 13.242188 -44.75 15.765625 -46 C 18.285156 -47.257812 21.128906 -47.890625 24.296875 -47.890625 C 27.171875 -47.890625 29.632812 -47.398438 31.6875 -46.421875 C 33.75 -45.441406 35.585938 -44.085938 37.203125 -42.359375 L 37.203125 -68.40625 Z M 45.46875 -68.40625 " />
            </g>
        </g>
    </g>
    <g fill="#000000" fill-opacity="1">
        <g transform="translate(230.703316, 129.238502)">
            <g>
                <path
                    d="M 32.046875 -21.171875 C 28.234375 -21.054688 24.988281 -20.753906 22.3125 -20.265625 C 19.632812 -19.785156 17.453125 -19.160156 15.765625 -18.390625 C 14.078125 -17.617188 12.851562 -16.707031 12.09375 -15.65625 C 11.34375 -14.601562 10.96875 -13.425781 10.96875 -12.125 C 10.96875 -10.882812 11.164062 -9.816406 11.5625 -8.921875 C 11.96875 -8.023438 12.519531 -7.289062 13.21875 -6.71875 C 13.914062 -6.144531 14.734375 -5.722656 15.671875 -5.453125 C 16.617188 -5.191406 17.632812 -5.0625 18.71875 -5.0625 C 20.175781 -5.0625 21.503906 -5.207031 22.703125 -5.5 C 23.910156 -5.789062 25.050781 -6.210938 26.125 -6.765625 C 27.195312 -7.328125 28.21875 -7.992188 29.1875 -8.765625 C 30.164062 -9.546875 31.117188 -10.429688 32.046875 -11.421875 Z M 5.34375 -40.40625 C 7.945312 -42.914062 10.75 -44.789062 13.75 -46.03125 C 16.75 -47.269531 20.078125 -47.890625 23.734375 -47.890625 C 26.367188 -47.890625 28.707031 -47.453125 30.75 -46.578125 C 32.789062 -45.710938 34.507812 -44.503906 35.90625 -42.953125 C 37.300781 -41.410156 38.351562 -39.539062 39.0625 -37.34375 C 39.769531 -35.144531 40.125 -32.726562 40.125 -30.09375 L 40.125 0 L 36.453125 0 C 35.648438 0 35.03125 -0.128906 34.59375 -0.390625 C 34.164062 -0.660156 33.828125 -1.179688 33.578125 -1.953125 L 32.65625 -6.40625 C 31.414062 -5.257812 30.207031 -4.242188 29.03125 -3.359375 C 27.851562 -2.484375 26.613281 -1.742188 25.3125 -1.140625 C 24.007812 -0.535156 22.625 -0.0703125 21.15625 0.25 C 19.6875 0.582031 18.050781 0.75 16.25 0.75 C 14.425781 0.75 12.707031 0.492188 11.09375 -0.015625 C 9.488281 -0.535156 8.085938 -1.304688 6.890625 -2.328125 C 5.703125 -3.347656 4.757812 -4.640625 4.0625 -6.203125 C 3.363281 -7.765625 3.015625 -9.613281 3.015625 -11.75 C 3.015625 -13.601562 3.523438 -15.390625 4.546875 -17.109375 C 5.566406 -18.828125 7.222656 -20.351562 9.515625 -21.6875 C 11.804688 -23.019531 14.796875 -24.109375 18.484375 -24.953125 C 22.171875 -25.804688 26.691406 -26.296875 32.046875 -26.421875 L 32.046875 -30.09375 C 32.046875 -33.75 31.253906 -36.515625 29.671875 -38.390625 C 28.097656 -40.265625 25.796875 -41.203125 22.765625 -41.203125 C 20.710938 -41.203125 19 -40.945312 17.625 -40.4375 C 16.25 -39.925781 15.054688 -39.351562 14.046875 -38.71875 C 13.046875 -38.082031 12.179688 -37.507812 11.453125 -37 C 10.722656 -36.488281 10.003906 -36.234375 9.296875 -36.234375 C 8.734375 -36.234375 8.25 -36.378906 7.84375 -36.671875 C 7.445312 -36.960938 7.109375 -37.328125 6.828125 -37.765625 Z M 5.34375 -40.40625 " />
            </g>
        </g>
    </g>
    <g fill="#000000" fill-opacity="1">
        <g transform="translate(276.868723, 129.238502)">
            <g>
                <path d="M 15.09375 -68.40625 L 15.09375 0 L 6.828125 0 L 6.828125 -68.40625 Z M 15.09375 -68.40625 " />
            </g>
        </g>
    </g>
    <g fill="#2eb5eb" fill-opacity="1">
        <g transform="translate(298.800173, 129.238502)">
            <g>
                <path
                    d="M 18.34375 -40.171875 L 13.65625 -1.53125 L 11.46875 8.078125 C 11.132812 9.191406 10.632812 10.050781 9.96875 10.65625 C 9.300781 11.257812 8.378906 11.5625 7.203125 11.5625 L 4 11.5625 L 10.21875 -40.03125 L 5.578125 -40.640625 C 5.015625 -40.796875 4.570312 -41.023438 4.25 -41.328125 C 3.925781 -41.640625 3.796875 -42.125 3.859375 -42.78125 L 4.265625 -46.125 L 10.96875 -46.125 L 11.515625 -50.671875 C 11.859375 -53.367188 12.53125 -55.757812 13.53125 -57.84375 C 14.539062 -59.9375 15.8125 -61.703125 17.34375 -63.140625 C 18.875 -64.578125 20.625 -65.664062 22.59375 -66.40625 C 24.5625 -67.15625 26.691406 -67.53125 28.984375 -67.53125 C 30.867188 -67.53125 32.617188 -67.222656 34.234375 -66.609375 L 33.4375 -62.328125 C 33.3125 -61.710938 32.894531 -61.40625 32.1875 -61.40625 C 31.476562 -61.40625 30.582031 -61.40625 29.5 -61.40625 C 28.164062 -61.40625 26.929688 -61.207031 25.796875 -60.8125 C 24.671875 -60.425781 23.671875 -59.800781 22.796875 -58.9375 C 21.929688 -58.070312 21.195312 -56.941406 20.59375 -55.546875 C 19.988281 -54.148438 19.566406 -52.445312 19.328125 -50.4375 L 18.8125 -46.125 L 30.5625 -46.125 L 29.765625 -40.171875 Z M 18.34375 -40.171875 " />
            </g>
        </g>
    </g>
    <g fill="#2eb5eb" fill-opacity="1">
        <g transform="translate(328.570823, 129.238502)">
            <g>
                <path d="M 2.96875 0 L 11.28125 -68.40625 L 19.421875 -68.40625 L 11.09375 0 Z M 2.96875 0 " />
            </g>
        </g>
    </g>
    <g fill="#2eb5eb" fill-opacity="1">
        <g transform="translate(349.470653, 129.238502)">
            <g>
                <path
                    d="M 21.046875 -5.8125 C 23.304688 -5.8125 25.351562 -6.425781 27.1875 -7.65625 C 29.03125 -8.894531 30.609375 -10.546875 31.921875 -12.609375 C 33.242188 -14.671875 34.257812 -17.046875 34.96875 -19.734375 C 35.6875 -22.429688 36.046875 -25.25 36.046875 -28.1875 C 36.046875 -32.519531 35.1875 -35.78125 33.46875 -37.96875 C 31.75 -40.15625 29.28125 -41.25 26.0625 -41.25 C 23.769531 -41.25 21.703125 -40.632812 19.859375 -39.40625 C 18.015625 -38.1875 16.441406 -36.550781 15.140625 -34.5 C 13.835938 -32.457031 12.828125 -30.085938 12.109375 -27.390625 C 11.398438 -24.703125 11.046875 -21.890625 11.046875 -18.953125 C 11.046875 -14.617188 11.894531 -11.34375 13.59375 -9.125 C 15.300781 -6.914062 17.785156 -5.8125 21.046875 -5.8125 Z M 20.25 0.65625 C 17.675781 0.65625 15.320312 0.210938 13.1875 -0.671875 C 11.050781 -1.554688 9.207031 -2.832031 7.65625 -4.5 C 6.113281 -6.175781 4.90625 -8.222656 4.03125 -10.640625 C 3.164062 -13.054688 2.734375 -15.8125 2.734375 -18.90625 C 2.734375 -22.863281 3.351562 -26.59375 4.59375 -30.09375 C 5.832031 -33.59375 7.535156 -36.648438 9.703125 -39.265625 C 11.867188 -41.878906 14.414062 -43.945312 17.34375 -45.46875 C 20.269531 -46.988281 23.421875 -47.75 26.796875 -47.75 C 29.367188 -47.75 31.722656 -47.304688 33.859375 -46.421875 C 35.992188 -45.535156 37.832031 -44.253906 39.375 -42.578125 C 40.925781 -40.910156 42.132812 -38.867188 43 -36.453125 C 43.875 -34.046875 44.3125 -31.304688 44.3125 -28.234375 C 44.3125 -24.304688 43.691406 -20.59375 42.453125 -17.09375 C 41.210938 -13.59375 39.515625 -10.523438 37.359375 -7.890625 C 35.210938 -5.265625 32.664062 -3.179688 29.71875 -1.640625 C 26.78125 -0.109375 23.625 0.65625 20.25 0.65625 Z M 20.25 0.65625 " />
            </g>
        </g>
    </g>
    <g fill="#2eb5eb" fill-opacity="1">
        <g transform="translate(397.679601, 129.238502)">
            <g>
                <path
                    d="M 67.953125 -47.046875 L 48.203125 0 L 41.9375 0 C 41.195312 0 40.734375 -0.523438 40.546875 -1.578125 L 34.828125 -33.484375 C 34.765625 -34.015625 34.710938 -34.519531 34.671875 -35 C 34.628906 -35.476562 34.578125 -35.976562 34.515625 -36.5 C 34.171875 -35.476562 33.796875 -34.457031 33.390625 -33.4375 L 19.828125 -1.578125 C 19.398438 -0.523438 18.765625 0 17.921875 0 L 11.890625 0 L 3.625 -47.046875 L 9.796875 -47.046875 C 10.421875 -47.046875 10.914062 -46.890625 11.28125 -46.578125 C 11.65625 -46.273438 11.90625 -45.859375 12.03125 -45.328125 L 16.34375 -15.046875 C 16.40625 -13.960938 16.46875 -12.910156 16.53125 -11.890625 C 16.59375 -10.867188 16.640625 -9.863281 16.671875 -8.875 C 17.015625 -9.863281 17.382812 -10.867188 17.78125 -11.890625 C 18.1875 -12.910156 18.609375 -13.960938 19.046875 -15.046875 L 31.90625 -45.515625 C 32.0625 -45.984375 32.351562 -46.367188 32.78125 -46.671875 C 33.21875 -46.984375 33.703125 -47.140625 34.234375 -47.140625 L 37.671875 -47.140625 C 38.253906 -47.140625 38.71875 -46.984375 39.0625 -46.671875 C 39.40625 -46.367188 39.609375 -45.984375 39.671875 -45.515625 L 44.953125 -15.046875 C 45.109375 -13.960938 45.25 -12.914062 45.375 -11.90625 C 45.5 -10.90625 45.609375 -9.894531 45.703125 -8.875 C 45.984375 -9.863281 46.285156 -10.867188 46.609375 -11.890625 C 46.929688 -12.910156 47.28125 -13.960938 47.65625 -15.046875 L 59.59375 -45.328125 C 59.75 -45.828125 60.050781 -46.238281 60.5 -46.5625 C 60.945312 -46.882812 61.429688 -47.046875 61.953125 -47.046875 Z M 67.953125 -47.046875 " />
            </g>
        </g>
    </g>
    <g clip-path="url(#38adb359db)">
        <path fill="#2eb6ec"
            d="M 17.074219 61.875 C 17.074219 61.875 26.246094 98.582031 67.398438 94.730469 C 67.398438 94.730469 46.082031 115.15625 85.75 149.203125 C 85.75 149.203125 58.515625 118.71875 72.875 89.855469 C 72.875 89.855469 37.199219 98.882812 22.105469 64.546875 C 22.105469 64.546875 40.160156 60.996094 51.113281 66.027344 C 66.707031 73.195312 67.398438 75.796875 76.570312 80.238281 C 76.570312 80.238281 79.085938 64.699219 89.300781 63.957031 C 98.238281 63.308594 99.953125 71.945312 108.835938 71.054688 C 108.835938 71.054688 96.101562 70.464844 95.222656 82.597656 C 94.34375 94.730469 79.386719 116.035156 79.386719 116.035156 C 79.386719 116.035156 94.921875 103.914062 97.882812 81.996094 C 97.882812 81.996094 97.292969 66.605469 128.371094 75.777344 C 128.371094 75.777344 127.480469 69.554688 104.984375 68.375 C 104.984375 68.375 96.160156 60.683594 89.292969 60.972656 C 82.421875 61.261719 75.96875 64.824219 74.789062 75.1875 C 74.789062 75.1875 64.726562 66.894531 51.703125 61.863281 C 38.722656 56.84375 17.0625 61.863281 17.0625 61.863281 Z M 17.074219 61.875 "
            fill-opacity="1" fill-rule="nonzero" />
    </g>
    <path fill="#2eb6ec"
        d="M 72.730469 70.613281 C 72.730469 70.613281 56.445312 54.183594 31.289062 55.964844 L 28.027344 52.113281 C 28.027344 52.113281 55.265625 46.492188 72.730469 70.613281 Z M 72.730469 70.613281 "
        fill-opacity="1" fill-rule="nonzero" />
    <path fill="#2eb6ec"
        d="M 89.089844 70.042969 C 89.070312 70.132812 89.046875 70.210938 89.035156 70.300781 C 89.035156 70.320312 89.035156 70.355469 89.023438 70.378906 C 89.023438 70.457031 89.011719 70.542969 89.011719 70.621094 C 89.011719 70.621094 89.011719 70.621094 89.011719 70.632812 C 89.035156 71.570312 89.847656 72.167969 90.257812 72.402344 C 90.472656 72.480469 90.703125 72.527344 90.9375 72.527344 C 92.5625 71.9375 92.863281 70.601562 92.863281 70.601562 C 92.273438 68.976562 90.9375 68.675781 90.9375 68.675781 C 89.613281 68.976562 89.101562 70.019531 89.101562 70.03125 Z M 89.089844 70.042969 "
        fill-opacity="1" fill-rule="nonzero" />
</svg>
